<svg width="80" height="80" viewBox="0 0 80 80" fill="none" xmlns="http://www.w3.org/2000/svg">
<path d="M21.3438 39.2573V54.0073L23.1503 55.0689V38.505C22.5673 38.7995 21.9635 39.0509 21.3438 39.2573Z" fill="#2A394C"/>
<path d="M17.4511 51.7187L19.7817 53.0883V39.6781C17.9825 40.045 16.1278 40.045 14.3286 39.6781V53.0889L16.6596 51.7187C16.7795 51.6482 16.9162 51.6111 17.0553 51.6111C17.1945 51.6111 17.3311 51.6482 17.4511 51.7187Z" fill="#2A394C"/>
<path d="M15.3698 28.4172L15.0573 30.2366L16.6912 29.3772C16.8033 29.3183 16.928 29.2875 17.0547 29.2875C17.1813 29.2875 17.3061 29.3183 17.4182 29.3772L19.0521 30.2366L18.7396 28.4172C18.7182 28.2923 18.7275 28.1641 18.7666 28.0437C18.8057 27.9232 18.8736 27.814 18.9643 27.7256L20.2862 26.4372L18.4595 26.1716C18.3341 26.1533 18.215 26.1049 18.1125 26.0304C18.0101 25.956 17.9272 25.8577 17.8712 25.7441L17.0543 24.0887L16.2373 25.7441C16.1812 25.8577 16.0984 25.956 15.9959 26.0304C15.8934 26.1049 15.7744 26.1533 15.649 26.1716L13.8223 26.4372L15.1441 27.7256C15.235 27.8139 15.303 27.9231 15.3424 28.0435C15.3817 28.164 15.3911 28.2923 15.3698 28.4172Z" fill="#2A394C"/>
<path d="M46.6367 73.6586C45.3357 72.8001 44.2678 71.6324 43.5289 70.2599C42.7899 68.8875 42.4028 67.3532 42.4023 65.7944V63.8857L38.7573 65.7997C38.6453 65.8585 38.5207 65.8893 38.3941 65.8893C38.2676 65.8893 38.143 65.8585 38.0309 65.7997L33.6047 63.4753L29.1791 65.7997C29.067 65.8585 28.9424 65.8893 28.8159 65.8893C28.6893 65.8893 28.5647 65.8585 28.4527 65.7997L24.0273 63.4753L19.602 65.7997C19.49 65.8586 19.3653 65.8893 19.2387 65.8893C19.1122 65.8893 18.9875 65.8586 18.8755 65.7997L14.4506 63.4755L10.0259 65.7996C9.91389 65.8584 9.78922 65.8892 9.66266 65.8892C9.53609 65.8892 9.41142 65.8584 9.29937 65.7996L5.65625 63.8858V66.3702C5.65857 68.3024 6.42716 70.1548 7.79345 71.5211C9.15974 72.8874 11.0122 73.656 12.9444 73.6583L46.6367 73.6586Z" fill="#2A394C"/>
<path d="M17.0553 34.7378C21.4546 34.7378 25.0337 31.2641 25.0337 26.9942C25.0337 22.7244 21.4546 19.25 17.0553 19.25C12.6559 19.25 9.07666 22.7244 9.07666 26.9942C9.07666 31.2641 12.6563 34.7378 17.0553 34.7378ZM11.4013 25.6503C11.4465 25.5117 11.5295 25.3886 11.6409 25.2947C11.7524 25.2008 11.8879 25.14 12.0321 25.1191L15.0188 24.685L16.3546 21.9784C16.4191 21.8477 16.519 21.7377 16.6428 21.6607C16.7666 21.5838 16.9094 21.543 17.0552 21.543C17.2009 21.543 17.3438 21.5838 17.4676 21.6607C17.5914 21.7377 17.6912 21.8477 17.7557 21.9784L19.0915 24.685L22.0784 25.1191C22.2227 25.14 22.3582 25.2009 22.4697 25.2949C22.5811 25.3889 22.6641 25.5121 22.7091 25.6508C22.7542 25.7895 22.7595 25.938 22.7246 26.0795C22.6896 26.221 22.6158 26.35 22.5113 26.4517L20.3501 28.558L20.8603 31.5327C20.8849 31.6763 20.8689 31.8241 20.8139 31.9591C20.759 32.0941 20.6674 32.2111 20.5495 32.2968C20.4315 32.3825 20.2919 32.4335 20.1465 32.444C20.0011 32.4545 19.8557 32.4241 19.7267 32.3562L17.0548 30.9517L14.3829 32.3562C14.2539 32.4241 14.1084 32.4545 13.963 32.444C13.8176 32.4335 13.6781 32.3825 13.5601 32.2968C13.4422 32.2111 13.3506 32.0941 13.2956 31.9591C13.2407 31.8241 13.2247 31.6763 13.2493 31.5327L13.7596 28.558L11.599 26.4512C11.4946 26.3495 11.4208 26.2205 11.3858 26.079C11.3509 25.9375 11.3563 25.789 11.4013 25.6503Z" fill="#2A394C"/>
<path d="M17.0551 38.3906C23.5238 38.3906 28.7873 33.2781 28.7873 26.994C28.7873 20.71 23.5242 15.5975 17.0551 15.5975C10.586 15.5975 5.32275 20.71 5.32275 26.994C5.32275 33.2781 10.5859 38.3906 17.0551 38.3906ZM17.0551 17.6875C22.316 17.6875 26.596 21.8622 26.596 26.9936C26.596 32.125 22.316 36.2997 17.0551 36.2997C11.7942 36.2997 7.514 32.125 7.514 26.9942C7.514 21.8634 11.794 17.6875 17.0551 17.6875Z" fill="#2A394C"/>
<path d="M12.7655 54.0069V39.2569C12.1458 39.0504 11.542 38.799 10.959 38.5045V55.0684L12.7655 54.0069Z" fill="#2A394C"/>
<path d="M68.0783 6.48828H68.0497C66.2976 6.49032 64.6175 7.18535 63.3759 8.42169C62.1344 9.65802 61.4324 11.3353 61.423 13.0873L61.4033 19.2686L63.5455 21.0866L66.0036 19C66.1448 18.8802 66.324 18.8144 66.5092 18.8144C66.6944 18.8144 66.8735 18.8802 67.0147 19L69.4724 21.0861L71.9299 19C72.0711 18.8801 72.2503 18.8143 72.4355 18.8143C72.6207 18.8143 72.7999 18.8801 72.9411 19L74.6277 20.432L74.6772 13.1411C74.6822 11.3845 73.9903 9.69759 72.7532 8.45043C71.5161 7.20326 69.8349 6.49762 68.0783 6.48828Z" fill="#2A394C"/>
<path d="M29.608 22.7344H43.1065C43.3137 22.7344 43.5124 22.8167 43.6589 22.9632C43.8054 23.1097 43.8877 23.3084 43.8877 23.5156C43.8877 23.7228 43.8054 23.9215 43.6589 24.068C43.5124 24.2145 43.3137 24.2969 43.1065 24.2969H30.0579C30.3946 25.8373 30.4403 27.4271 30.1926 28.9844H43.1065C43.3137 28.9844 43.5124 29.0667 43.6589 29.2132C43.8054 29.3597 43.8877 29.5584 43.8877 29.7656C43.8877 29.9728 43.8054 30.1715 43.6589 30.318C43.5124 30.4645 43.3137 30.5469 43.1065 30.5469H29.8376C28.9864 33.4091 27.1769 35.8917 24.7126 37.5781V56.4336C24.7126 56.5712 24.6762 56.7064 24.6072 56.8255C24.5381 56.9446 24.4388 57.0433 24.3194 57.1117C24.1999 57.18 24.0645 57.2156 23.9269 57.2148C23.7892 57.214 23.6542 57.1769 23.5355 57.1072L17.0546 53.299L16.1004 53.8597L16.0801 62.5665L19.2387 64.2254L23.664 61.9012C23.776 61.8424 23.9007 61.8116 24.0273 61.8116C24.1538 61.8116 24.2785 61.8424 24.3905 61.9012L28.8159 64.2254L33.2413 61.9012C33.3534 61.8424 33.478 61.8117 33.6045 61.8117C33.7311 61.8117 33.8557 61.8424 33.9677 61.9012L38.394 64.2254L42.8202 61.9012C42.9393 61.8387 43.0725 61.8079 43.2069 61.812C43.3414 61.816 43.4725 61.8547 43.5876 61.9243C43.7027 61.9938 43.7979 62.0919 43.864 62.2091C43.9301 62.3262 43.9648 62.4585 43.9648 62.5929V65.7944C43.9699 67.8744 44.799 69.8677 46.2705 71.3379C47.7419 72.8082 49.7359 73.6355 51.816 73.639C53.8961 73.6424 55.8928 72.8216 57.3691 71.3562C58.8454 69.8909 59.681 67.9003 59.693 65.8203L59.8598 13.0814C59.8655 11.7888 60.1773 10.516 60.7697 9.36715C61.3621 8.21833 62.2183 7.22619 63.268 6.47201L22.8707 6.34076H22.8423C21.099 6.34263 19.4272 7.03403 18.1919 8.26405C16.9565 9.49407 16.2579 11.1628 16.2485 12.9061L16.2445 14.0609C16.5127 14.0453 16.7823 14.0345 17.0546 14.0345C22.8548 14.0351 27.7966 17.6756 29.608 22.7344ZM43.1065 55.5469H27.9373C27.7301 55.5469 27.5314 55.4645 27.3848 55.318C27.2383 55.1715 27.156 54.9728 27.156 54.7656C27.156 54.5584 27.2383 54.3597 27.3848 54.2132C27.5314 54.0667 27.7301 53.9844 27.9373 53.9844H43.107C43.3142 53.9844 43.5129 54.0667 43.6594 54.2132C43.8059 54.3597 43.8882 54.5584 43.8882 54.7656C43.8882 54.9728 43.8059 55.1715 43.6594 55.318C43.5129 55.4645 43.3142 55.5469 43.107 55.5469H43.1065ZM43.1065 49.2969H27.9373C27.7301 49.2969 27.5314 49.2145 27.3848 49.068C27.2383 48.9215 27.156 48.7228 27.156 48.5156C27.156 48.3084 27.2383 48.1097 27.3848 47.9632C27.5314 47.8167 27.7301 47.7344 27.9373 47.7344H43.107C43.3142 47.7344 43.5129 47.8167 43.6594 47.9632C43.8059 48.1097 43.8882 48.3084 43.8882 48.5156C43.8882 48.7228 43.8059 48.9215 43.6594 49.068C43.5129 49.2145 43.3142 49.2969 43.107 49.2969H43.1065ZM43.1065 43.0469H27.9373C27.7301 43.0469 27.5314 42.9645 27.3848 42.818C27.2383 42.6715 27.156 42.4728 27.156 42.2656C27.156 42.0584 27.2383 41.8597 27.3848 41.7132C27.5314 41.5667 27.7301 41.4844 27.9373 41.4844H43.107C43.3142 41.4844 43.5129 41.5667 43.6594 41.7132C43.8059 41.8597 43.8882 42.0584 43.8882 42.2656C43.8882 42.4728 43.8059 42.6715 43.6594 42.818C43.5129 42.9645 43.3142 43.0469 43.107 43.0469H43.1065ZM43.1065 36.7969H27.9373C27.7301 36.7969 27.5314 36.7145 27.3848 36.568C27.2383 36.4215 27.156 36.2228 27.156 36.0156C27.156 35.8084 27.2383 35.6097 27.3848 35.4632C27.5314 35.3167 27.7301 35.2344 27.9373 35.2344H43.107C43.3142 35.2344 43.5129 35.3167 43.6594 35.4632C43.8059 35.6097 43.8882 35.8084 43.8882 36.0156C43.8882 36.2228 43.8059 36.4215 43.6594 36.568C43.5129 36.7145 43.3142 36.7969 43.107 36.7969H43.1065ZM53.2534 22.7344H53.6199C53.8271 22.7344 54.0258 22.8167 54.1723 22.9632C54.3189 23.1097 54.4012 23.3084 54.4012 23.5156C54.4012 23.7228 54.3189 23.9215 54.1723 24.068C54.0258 24.2145 53.8271 24.2969 53.6199 24.2969H53.2534C53.0462 24.2969 52.8474 24.2145 52.7009 24.068C52.5544 23.9215 52.4721 23.7228 52.4721 23.5156C52.4721 23.3084 52.5544 23.1097 52.7009 22.9632C52.8474 22.8167 53.0462 22.7344 53.2534 22.7344ZM53.2534 28.9844H53.6199C53.8271 28.9844 54.0258 29.0667 54.1723 29.2132C54.3189 29.3597 54.4012 29.5584 54.4012 29.7656C54.4012 29.9728 54.3189 30.1715 54.1723 30.318C54.0258 30.4645 53.8271 30.5469 53.6199 30.5469H53.2534C53.0462 30.5469 52.8474 30.4645 52.7009 30.318C52.5544 30.1715 52.4721 29.9728 52.4721 29.7656C52.4721 29.5584 52.5544 29.3597 52.7009 29.2132C52.8474 29.0667 53.0462 28.9844 53.2534 28.9844ZM53.2534 35.2344H53.6199C53.8271 35.2344 54.0258 35.3167 54.1723 35.4632C54.3189 35.6097 54.4012 35.8084 54.4012 36.0156C54.4012 36.2228 54.3189 36.4215 54.1723 36.568C54.0258 36.7145 53.8271 36.7969 53.6199 36.7969H53.2534C53.0462 36.7969 52.8474 36.7145 52.7009 36.568C52.5544 36.4215 52.4721 36.2228 52.4721 36.0156C52.4721 35.8084 52.5544 35.6097 52.7009 35.4632C52.8474 35.3167 53.0462 35.2344 53.2534 35.2344ZM53.2534 41.4844H53.6199C53.8271 41.4844 54.0258 41.5667 54.1723 41.7132C54.3189 41.8597 54.4012 42.0584 54.4012 42.2656C54.4012 42.4728 54.3189 42.6715 54.1723 42.818C54.0258 42.9645 53.8271 43.0469 53.6199 43.0469H53.2534C53.0462 43.0469 52.8474 42.9645 52.7009 42.818C52.5544 42.6715 52.4721 42.4728 52.4721 42.2656C52.4721 42.0584 52.5544 41.8597 52.7009 41.7132C52.8474 41.5667 53.0462 41.4844 53.2534 41.4844ZM53.2534 47.7344H53.6199C53.8271 47.7344 54.0258 47.8167 54.1723 47.9632C54.3189 48.1097 54.4012 48.3084 54.4012 48.5156C54.4012 48.7228 54.3189 48.9215 54.1723 49.068C54.0258 49.2145 53.8271 49.2969 53.6199 49.2969H53.2534C53.0462 49.2969 52.8474 49.2145 52.7009 49.068C52.5544 48.9215 52.4721 48.7228 52.4721 48.5156C52.4721 48.3084 52.5544 48.1097 52.7009 47.9632C52.8474 47.8167 53.0462 47.7344 53.2534 47.7344ZM53.2534 53.9844H53.6199C53.8271 53.9844 54.0258 54.0667 54.1723 54.2132C54.3189 54.3597 54.4012 54.5584 54.4012 54.7656C54.4012 54.9728 54.3189 55.1715 54.1723 55.318C54.0258 55.4645 53.8271 55.5469 53.6199 55.5469H53.2534C53.0462 55.5469 52.8474 55.4645 52.7009 55.318C52.5544 55.1715 52.4721 54.9728 52.4721 54.7656C52.4721 54.5584 52.5544 54.3597 52.7009 54.2132C52.8474 54.0667 53.0462 53.9844 53.2534 53.9844ZM46.8245 22.7344H49.5946C49.8018 22.7344 50.0005 22.8167 50.147 22.9632C50.2935 23.1097 50.3759 23.3084 50.3759 23.5156C50.3759 23.7228 50.2935 23.9215 50.147 24.068C50.0005 24.2145 49.8018 24.2969 49.5946 24.2969H46.8245C46.6173 24.2969 46.4185 24.2145 46.272 24.068C46.1255 23.9215 46.0432 23.7228 46.0432 23.5156C46.0432 23.3084 46.1255 23.1097 46.272 22.9632C46.4185 22.8167 46.6173 22.7344 46.8245 22.7344ZM46.8245 28.9844H49.5946C49.8018 28.9844 50.0005 29.0667 50.147 29.2132C50.2935 29.3597 50.3759 29.5584 50.3759 29.7656C50.3759 29.9728 50.2935 30.1715 50.147 30.318C50.0005 30.4645 49.8018 30.5469 49.5946 30.5469H46.8245C46.6173 30.5469 46.4185 30.4645 46.272 30.318C46.1255 30.1715 46.0432 29.9728 46.0432 29.7656C46.0432 29.5584 46.1255 29.3597 46.272 29.2132C46.4185 29.0667 46.6173 28.9844 46.8245 28.9844ZM46.8245 35.2344H49.5946C49.8018 35.2344 50.0005 35.3167 50.147 35.4632C50.2935 35.6097 50.3759 35.8084 50.3759 36.0156C50.3759 36.2228 50.2935 36.4215 50.147 36.568C50.0005 36.7145 49.8018 36.7969 49.5946 36.7969H46.8245C46.6173 36.7969 46.4185 36.7145 46.272 36.568C46.1255 36.4215 46.0432 36.2228 46.0432 36.0156C46.0432 35.8084 46.1255 35.6097 46.272 35.4632C46.4185 35.3167 46.6173 35.2344 46.8245 35.2344ZM46.8245 41.4844H49.5946C49.8018 41.4844 50.0005 41.5667 50.147 41.7132C50.2935 41.8597 50.3759 42.0584 50.3759 42.2656C50.3759 42.4728 50.2935 42.6715 50.147 42.818C50.0005 42.9645 49.8018 43.0469 49.5946 43.0469H46.8245C46.6173 43.0469 46.4185 42.9645 46.272 42.818C46.1255 42.6715 46.0432 42.4728 46.0432 42.2656C46.0432 42.0584 46.1255 41.8597 46.272 41.7132C46.4185 41.5667 46.6173 41.4844 46.8245 41.4844ZM46.8245 47.7344H49.5946C49.8018 47.7344 50.0005 47.8167 50.147 47.9632C50.2935 48.1097 50.3759 48.3084 50.3759 48.5156C50.3759 48.7228 50.2935 48.9215 50.147 49.068C50.0005 49.2145 49.8018 49.2969 49.5946 49.2969H46.8245C46.6173 49.2969 46.4185 49.2145 46.272 49.068C46.1255 48.9215 46.0432 48.7228 46.0432 48.5156C46.0432 48.3084 46.1255 48.1097 46.272 47.9632C46.4185 47.8167 46.6173 47.7344 46.8245 47.7344ZM46.8245 53.9844H49.5946C49.8018 53.9844 50.0005 54.0667 50.147 54.2132C50.2935 54.3597 50.3759 54.5584 50.3759 54.7656C50.3759 54.9728 50.2935 55.1715 50.147 55.318C50.0005 55.4645 49.8018 55.5469 49.5946 55.5469H46.8245C46.6173 55.5469 46.4185 55.4645 46.272 55.318C46.1255 55.1715 46.0432 54.9728 46.0432 54.7656C46.0432 54.5584 46.1255 54.3597 46.272 54.2132C46.4185 54.0667 46.6173 53.9844 46.8245 53.9844Z" fill="#2A394C"/>
</svg>
