<svg width="80" height="80" viewBox="0 0 80 80" fill="none" xmlns="http://www.w3.org/2000/svg">
<path d="M23.7451 35.0509C23.6452 35.1501 23.5661 35.2681 23.5122 35.3981C23.4583 35.5281 23.4308 35.6675 23.4312 35.8083V35.8308L27.8197 35.8322V35.8089C27.8194 35.5251 27.7065 35.2529 27.5059 35.0522C27.3052 34.8515 27.0331 34.7385 26.7493 34.7381L24.5024 34.7373C24.3615 34.7355 24.2217 34.7624 24.0915 34.8163C23.9613 34.8702 23.8434 34.95 23.7451 35.0509Z" fill="#2A394C"/>
<path d="M16.5024 30.1292H20.1239L18.3132 25.9689L16.5024 30.1292Z" fill="#2A394C"/>
<path d="M32.8936 33.1211C33.9378 33.1211 34.8311 32.5262 35.1811 31.6917H30.606C30.9558 32.5262 31.8492 33.1211 32.8936 33.1211Z" fill="#2A394C"/>
<path d="M47.1164 15.4352L41.9317 17.3205C41.5593 17.4557 41.1737 17.5511 40.7812 17.6053V60.9092C40.9908 60.8693 41.197 60.8131 41.3978 60.7411L46.5825 58.8558C47.2016 58.6302 47.8554 58.5151 48.5142 58.5154H64.3606C65.445 58.5142 66.4846 58.0828 67.2513 57.316C68.018 56.5493 68.4493 55.5096 68.4505 54.4253V19.2789C68.4493 18.1946 68.018 17.155 67.2513 16.3882C66.4845 15.6215 65.445 15.1901 64.3606 15.1889H48.5142C48.0375 15.1887 47.5644 15.272 47.1164 15.4352ZM61.9303 49.1522H47.1753C46.9681 49.1522 46.7694 49.0699 46.6229 48.9233C46.4764 48.7768 46.3941 48.5781 46.3941 48.3709C46.3941 48.1637 46.4764 47.965 46.6229 47.8185C46.7694 47.672 46.9681 47.5897 47.1753 47.5897H61.9303C62.1375 47.5897 62.3362 47.672 62.4827 47.8185C62.6293 47.965 62.7116 48.1637 62.7116 48.3709C62.7116 48.5781 62.6293 48.7768 62.4827 48.9233C62.3362 49.0699 62.1375 49.1522 61.9303 49.1522ZM61.9303 41.4959H47.1753C46.9681 41.4959 46.7694 41.4136 46.6229 41.2671C46.4764 41.1206 46.3941 40.9219 46.3941 40.7147C46.3941 40.5075 46.4764 40.3088 46.6229 40.1622C46.7694 40.0157 46.9681 39.9334 47.1753 39.9334H61.9303C62.1375 39.9334 62.3362 40.0157 62.4827 40.1622C62.6293 40.3088 62.7116 40.5075 62.7116 40.7147C62.7116 40.9219 62.6293 41.1206 62.4827 41.2671C62.3362 41.4136 62.1375 41.4959 61.9303 41.4959ZM62.7116 33.0584C62.7116 33.2656 62.6293 33.4643 62.4827 33.6109C62.3362 33.7574 62.1375 33.8397 61.9303 33.8397H47.1753C46.9681 33.8397 46.7694 33.7574 46.6229 33.6109C46.4764 33.4643 46.3941 33.2656 46.3941 33.0584C46.3941 32.8512 46.4764 32.6525 46.6229 32.506C46.7694 32.3595 46.9681 32.2772 47.1753 32.2772H61.9303C62.033 32.2772 62.1346 32.2974 62.2294 32.3367C62.3243 32.376 62.4104 32.4336 62.483 32.5062C62.5555 32.5788 62.6131 32.665 62.6523 32.7599C62.6915 32.8547 62.7117 32.9564 62.7116 33.0591V33.0584ZM54.187 25.4022C54.187 25.6094 54.1047 25.8081 53.9582 25.9546C53.8117 26.1011 53.613 26.1834 53.4058 26.1834H47.1753C46.9681 26.1834 46.7694 26.1011 46.6229 25.9546C46.4764 25.8081 46.3941 25.6094 46.3941 25.4022C46.3941 25.195 46.4764 24.9963 46.6229 24.8498C46.7694 24.7032 46.9681 24.6209 47.1753 24.6209H53.4063C53.5089 24.6209 53.6106 24.6412 53.7054 24.6805C53.8002 24.7198 53.8864 24.7774 53.959 24.85C54.0315 24.9227 54.089 25.0089 54.1283 25.1038C54.1675 25.1986 54.1876 25.3003 54.1875 25.403L54.187 25.4022Z" fill="#2A394C"/>
<path d="M18.3124 33.1211C19.3566 33.1211 20.2499 32.5262 20.5999 31.6917H16.0254C16.3749 32.5262 17.2688 33.1211 18.3124 33.1211Z" fill="#2A394C"/>
<path d="M34.7044 30.1292L32.8938 25.9689L31.083 30.1292H34.7044Z" fill="#2A394C"/>
<path d="M73.6772 22.5353H70.013V54.426C70.0112 55.9245 69.4151 57.3612 68.3555 58.4208C67.2958 59.4804 65.8592 60.0764 64.3606 60.0782H48.5142C48.0375 60.0779 47.5644 60.1613 47.1164 60.3244L44.6372 61.2258V64.8113H73.6772C73.9672 64.811 74.2452 64.6956 74.4502 64.4906C74.6553 64.2855 74.7706 64.0075 74.771 63.7175V23.6291C74.7706 23.3391 74.6553 23.0611 74.4502 22.8561C74.2452 22.651 73.9672 22.5357 73.6772 22.5353Z" fill="#2A394C"/>
<path d="M31.4857 60.0781H15.6393C14.1407 60.0764 12.704 59.4803 11.6443 58.4206C10.5847 57.3609 9.98863 55.9241 9.98697 54.4255V22.5349H6.32275C6.03277 22.5352 5.75477 22.6505 5.54972 22.8556C5.34468 23.0606 5.22933 23.3386 5.229 23.6286V63.7174C5.22933 64.0073 5.34468 64.2853 5.54972 64.4904C5.75477 64.6954 6.03277 64.8108 6.32275 64.8111H35.3628V61.2256L32.8835 60.3241C32.4355 60.1611 31.9624 60.0779 31.4857 60.0781ZM8.79932 41.6695C8.79932 41.8767 8.71701 42.0755 8.57049 42.222C8.42398 42.3685 8.22527 42.4508 8.01807 42.4508C7.81087 42.4508 7.61215 42.3685 7.46564 42.222C7.31913 42.0755 7.23682 41.8767 7.23682 41.6695V29.7945C7.23682 29.5873 7.31913 29.3886 7.46564 29.2421C7.61215 29.0956 7.81087 29.0133 8.01807 29.0133C8.22527 29.0133 8.42398 29.0956 8.57049 29.2421C8.71701 29.3886 8.79932 29.5873 8.79932 29.7945V41.6695ZM8.79932 26.8258C8.79932 27.033 8.71701 27.2317 8.57049 27.3782C8.42398 27.5247 8.22527 27.607 8.01807 27.607C7.81087 27.607 7.61215 27.5247 7.46564 27.3782C7.31913 27.2317 7.23682 27.033 7.23682 26.8258V25.8414C7.23682 25.6342 7.31913 25.4355 7.46564 25.289C7.61215 25.1425 7.81087 25.0602 8.01807 25.0602C8.22527 25.0602 8.42398 25.1425 8.57049 25.289C8.71701 25.4355 8.79932 25.6342 8.79932 25.8414V26.8258Z" fill="#2A394C"/>
<path d="M40 62.5492C39.3412 62.5493 38.6875 62.4344 38.0683 62.2095L36.9253 61.7939V64.5534C38.9368 63.9929 41.0632 63.9929 43.0747 64.5534V61.7939L41.9317 62.2095C41.3125 62.4344 40.6587 62.5493 40 62.5492Z" fill="#2A394C"/>
<path d="M31.4856 15.1889H15.6392C14.5548 15.1901 13.5152 15.6215 12.7485 16.3882C11.9818 17.155 11.5505 18.1946 11.5493 19.2789V54.4253C11.5505 55.5097 11.9817 56.5493 12.7485 57.3161C13.5152 58.083 14.5548 58.5143 15.6392 58.5156H31.4856C32.1444 58.5152 32.7982 58.6304 33.4173 58.8558L38.602 60.7412C38.8028 60.8133 39.0089 60.8695 39.2185 60.9092V17.6053C38.8261 17.5511 38.4405 17.4557 38.0681 17.3205L32.8834 15.4352C32.4354 15.272 31.9623 15.1887 31.4856 15.1889ZM32.8245 49.1522H18.0695C17.8623 49.1522 17.6636 49.0699 17.517 48.9233C17.3705 48.7768 17.2882 48.5781 17.2882 48.3709C17.2882 48.1637 17.3705 47.965 17.517 47.8185C17.6636 47.672 17.8623 47.5897 18.0695 47.5897H32.8245C33.0317 47.5897 33.2304 47.672 33.3769 47.8185C33.5234 47.965 33.6057 48.1637 33.6057 48.3709C33.6057 48.5781 33.5234 48.7768 33.3769 48.9233C33.2304 49.0699 33.0317 49.1522 32.8245 49.1522ZM32.8245 41.4959H18.0695C17.8623 41.4959 17.6636 41.4136 17.517 41.2671C17.3705 41.1206 17.2882 40.9219 17.2882 40.7147C17.2882 40.5075 17.3705 40.3088 17.517 40.1622C17.6636 40.0157 17.8623 39.9334 18.0695 39.9334H32.8245C33.0317 39.9334 33.2304 40.0157 33.3769 40.1622C33.5234 40.3088 33.6057 40.5075 33.6057 40.7147C33.6057 40.9219 33.5234 41.1206 33.3769 41.2671C33.2304 41.4136 33.0317 41.4959 32.8245 41.4959ZM33.6098 23.6991L36.4379 30.1978C36.5755 30.2592 36.6924 30.3591 36.7746 30.4855C36.8567 30.6119 36.9005 30.7593 36.9007 30.91C36.9007 32.9905 35.1029 34.6831 32.8931 34.6831C30.6832 34.6831 28.8853 32.9905 28.8853 30.91C28.8854 30.7593 28.9292 30.6118 29.0113 30.4855C29.0934 30.3591 29.2104 30.2593 29.3481 30.198L31.4615 25.3422C29.9488 25.6735 28.3685 25.4837 26.9771 24.8037H26.406V33.175H26.7498C27.4478 33.176 28.1169 33.4538 28.6104 33.9474C29.1039 34.4411 29.3815 35.1103 29.3823 35.8083V36.6131C29.3823 36.8203 29.3 37.019 29.1535 37.1655C29.0069 37.3121 28.8082 37.3944 28.601 37.3944L22.6499 37.3923C22.4427 37.3923 22.244 37.31 22.0975 37.1635C21.951 37.017 21.8687 36.8183 21.8687 36.6111V35.8076C21.8687 35.1092 22.1461 34.4394 22.64 33.9456C23.1338 33.4517 23.8036 33.1743 24.502 33.1742H24.8435V24.8042H24.2278C22.8365 25.4844 21.256 25.6738 19.7434 25.3417L21.8573 30.1983C21.9949 30.2597 22.1119 30.3596 22.194 30.4859C22.2762 30.6123 22.32 30.7597 22.3203 30.9105C22.3203 32.9909 20.5223 34.6836 18.3124 34.6836C16.1026 34.6836 14.3046 32.9909 14.3046 30.9105C14.3048 30.7598 14.3485 30.6123 14.4307 30.486C14.5128 30.3596 14.6298 30.2597 14.7674 30.1984L17.5956 23.6995C17.6989 23.5083 17.8702 23.3628 18.0755 23.2917C18.2809 23.2205 18.5055 23.2289 18.7049 23.3152L18.9917 23.4492C19.7286 23.7913 20.5345 23.9587 21.3467 23.9384C22.1589 23.9182 22.9555 23.7108 23.6745 23.3325C23.7871 23.2729 23.9126 23.2417 24.0401 23.2417H24.8435V22.6094C24.8435 22.4022 24.9258 22.2035 25.0724 22.0569C25.2189 21.9104 25.4176 21.8281 25.6248 21.8281C25.832 21.8281 26.0307 21.9104 26.1772 22.0569C26.3237 22.2035 26.406 22.4022 26.406 22.6094V23.2422H27.1651C27.2925 23.2422 27.418 23.2734 27.5306 23.333C28.2496 23.7113 29.0462 23.9187 29.8584 23.9389C30.6706 23.9592 31.4766 23.7918 32.2135 23.4497L32.5003 23.3156C32.5982 23.267 32.7048 23.2384 32.8138 23.2315C32.9229 23.2245 33.0323 23.2394 33.1355 23.2752C33.2388 23.311 33.3339 23.367 33.4153 23.4399C33.4967 23.5128 33.5628 23.6013 33.6096 23.7L33.6098 23.6991Z" fill="#2A394C"/>
</svg>
