<svg width="80" height="80" viewBox="0 0 80 80" fill="none" xmlns="http://www.w3.org/2000/svg">
<path d="M71.9631 32.3875C72.1879 32.1577 72.3639 31.8849 72.4806 31.5853C72.5974 31.2858 72.6524 30.9658 72.6423 30.6445C72.6118 30.0123 72.338 29.4163 71.8781 28.9813C71.4183 28.5463 70.8081 28.306 70.1751 28.3106H58.492C58.1635 28.3106 57.8386 28.378 57.5372 28.5086C57.2358 28.6392 56.9643 28.8302 56.7397 29.0698C56.515 29.3094 56.3419 29.5926 56.231 29.9017C56.12 30.2109 56.0737 30.5395 56.0948 30.8673C56.1381 31.4477 56.3883 31.9932 56.7998 32.4047C57.2114 32.8161 57.757 33.0662 58.3373 33.1094C58.6651 33.1304 58.9937 33.0841 59.3029 32.9732C59.612 32.8622 59.8952 32.6891 60.1348 32.4644C60.3744 32.2398 60.5654 31.9684 60.696 31.667C60.8266 31.3656 60.894 31.0406 60.894 30.7122C60.894 30.505 60.9763 30.3063 61.1229 30.1597C61.2694 30.0132 61.4681 29.9309 61.6753 29.9309H67.0581C67.2653 29.9309 67.464 30.0132 67.6105 30.1597C67.757 30.3063 67.8393 30.505 67.8393 30.7122C67.8394 31.1901 67.9819 31.6571 68.2488 32.0535C68.5157 32.4499 68.8947 32.7577 69.3375 32.9376C69.7803 33.1174 70.2666 33.161 70.7343 33.063C71.202 32.9649 71.6299 32.7295 71.9631 32.387V32.3875Z" fill="#2A394C"/>
<path d="M62.8388 31.4939L62.2979 57.5842H66.4358L65.895 31.4939H62.8388Z" fill="#2A394C"/>
<path d="M59.4082 60.6722V62.003H69.3251V60.6722L68.5624 59.1467H60.1709L59.4082 60.6722Z" fill="#2A394C"/>
<path d="M39.9999 23.4806C41.1785 23.4807 42.3307 23.1312 43.3106 22.4764C44.2906 21.8216 45.0544 20.891 45.5055 19.8021C45.9565 18.7132 46.0746 17.5151 45.8447 16.3591C45.6147 15.2031 45.0472 14.1413 44.2138 13.3079C43.3804 12.4745 42.3186 11.907 41.1627 11.677C40.0067 11.4471 38.8086 11.5651 37.7197 12.0161C36.6308 12.4671 35.7001 13.2309 35.0453 14.2109C34.3905 15.1908 34.041 16.343 34.041 17.5216C34.0428 19.1014 34.6712 20.6161 35.7883 21.7332C36.9054 22.8504 38.4201 23.4788 39.9999 23.4806ZM39.9999 15.4392C40.4521 15.4228 40.8988 15.5419 41.2828 15.7812C41.6668 16.0205 41.9705 16.3691 42.1549 16.7822C42.3394 17.1954 42.3962 17.6542 42.318 18.0998C42.2398 18.5455 42.0302 18.9576 41.7161 19.2832C41.402 19.6089 40.9978 19.8333 40.5553 19.9276C40.1128 20.0219 39.6522 19.9818 39.2326 19.8124C38.8131 19.6431 38.4537 19.3522 38.2007 18.9771C37.9476 18.6021 37.8124 18.1599 37.8124 17.7075C37.8025 17.1169 38.0273 16.5464 38.4373 16.1212C38.8474 15.696 39.4093 15.4508 39.9999 15.4392Z" fill="#2A394C"/>
<path d="M22.8916 37.4426C22.8916 37.2354 22.8093 37.0367 22.6628 36.8902C22.5163 36.7437 22.3176 36.6614 22.1104 36.6614C21.9032 36.6614 21.7044 36.7437 21.5579 36.8902C21.4114 37.0367 21.3291 37.2354 21.3291 37.4426V38.0051C21.3291 38.2123 21.4114 38.411 21.5579 38.5576C21.7044 38.7041 21.9032 38.7864 22.1104 38.7864C22.3176 38.7864 22.5163 38.7041 22.6628 38.5576C22.8093 38.411 22.8916 38.2123 22.8916 38.0051V37.4426Z" fill="#2A394C"/>
<path d="M22.1104 40.3614C21.9032 40.3614 21.7044 40.4437 21.5579 40.5902C21.4114 40.7367 21.3291 40.9354 21.3291 41.1426V54.0344C21.3291 54.2416 21.4114 54.4403 21.5579 54.5868C21.7044 54.7333 21.9032 54.8156 22.1104 54.8156C22.3176 54.8156 22.5163 54.7333 22.6628 54.5868C22.8093 54.4403 22.8916 54.2416 22.8916 54.0344V41.1426C22.8916 40.9354 22.8093 40.7367 22.6628 40.5902C22.5163 40.4437 22.3176 40.3614 22.1104 40.3614Z" fill="#2A394C"/>
<path d="M40 18.4135C40.3452 18.4135 40.625 18.0974 40.625 17.7075C40.625 17.3176 40.3452 17.0016 40 17.0016C39.6548 17.0016 39.375 17.3176 39.375 17.7075C39.375 18.0974 39.6548 18.4135 40 18.4135Z" fill="#2A394C"/>
<path d="M74.715 26.6786L74.6569 21.6913L40 7.21783L5.28125 21.6866L5.33953 26.6786H74.715ZM30.3453 16.7411H32.5191C32.7124 14.8917 33.584 13.1795 34.9655 11.9349C36.347 10.6903 38.1405 10.0016 40 10.0016C41.8595 10.0016 43.653 10.6903 45.0345 11.9349C46.416 13.1795 47.2876 14.8917 47.4809 16.7411H49.6547C49.8619 16.7411 50.0606 16.8234 50.2071 16.9699C50.3536 17.1165 50.4359 17.3152 50.4359 17.5224C50.4359 17.7296 50.3536 17.9283 50.2071 18.0748C50.0606 18.2213 49.8619 18.3036 49.6547 18.3036H47.4809C47.2879 20.1532 46.4165 21.8658 45.035 23.1107C43.6534 24.3556 41.8597 25.0445 40 25.0445C38.1403 25.0445 36.3466 24.3556 34.965 23.1107C33.5835 21.8658 32.7121 20.1532 32.5191 18.3036H30.3453C30.1381 18.3036 29.9394 18.2213 29.7929 18.0748C29.6464 17.9283 29.5641 17.7296 29.5641 17.5224C29.5641 17.3152 29.6464 17.1165 29.7929 16.9699C29.9394 16.8234 30.1381 16.7411 30.3453 16.7411Z" fill="#2A394C"/>
<path d="M10.6748 60.6722V62.003H20.5917V60.6722L19.829 59.1467H11.4375L10.6748 60.6722Z" fill="#2A394C"/>
<path d="M6.95312 63.5655H73.0469V67.3155H6.95312V63.5655Z" fill="#2A394C"/>
<path d="M23.9089 30.6445C23.8782 30.0123 23.6043 29.4165 23.1445 28.9815C22.6846 28.5466 22.0745 28.3062 21.4416 28.3106H9.75862C9.43014 28.3106 9.10514 28.3779 8.80372 28.5085C8.50231 28.6391 8.23087 28.8301 8.0062 29.0697C7.78152 29.3093 7.60838 29.5925 7.49748 29.9017C7.38658 30.2109 7.34028 30.5395 7.36143 30.8673C7.40467 31.4477 7.65481 31.9932 8.06634 32.4047C8.47786 32.8161 9.02343 33.0662 9.60378 33.1094C9.93156 33.1305 10.2602 33.0841 10.5694 32.9732C10.8785 32.8623 11.1617 32.6891 11.4013 32.4645C11.6409 32.2398 11.8319 31.9684 11.9625 31.667C12.0931 31.3656 12.1605 31.0406 12.1605 30.7122C12.1605 30.505 12.2428 30.3063 12.3893 30.1597C12.5358 30.0132 12.7345 29.9309 12.9417 29.9309H18.3246C18.5318 29.9309 18.7305 30.0132 18.877 30.1597C19.0235 30.3063 19.1058 30.505 19.1058 30.7122C19.1059 31.0304 19.1693 31.3454 19.2922 31.6389C19.4151 31.9325 19.5951 32.1986 19.8218 32.422C20.0484 32.6454 20.3172 32.8215 20.6125 32.9401C20.9078 33.0587 21.2237 33.1174 21.5419 33.1129C21.8601 33.1084 22.1742 33.0407 22.466 32.9138C22.7578 32.7868 23.0215 32.6032 23.2417 32.3735C23.4619 32.1438 23.6343 31.8726 23.7489 31.5757C23.8634 31.2788 23.9178 30.9621 23.9089 30.644V30.6445Z" fill="#2A394C"/>
<path d="M4.60938 68.878H75.3906V72.7822H4.60938V68.878Z" fill="#2A394C"/>
<path d="M38.4721 31.4939L37.9312 57.5842H42.0693L41.5283 31.4939H38.4721Z" fill="#2A394C"/>
<path d="M14.1054 31.4939L13.5645 57.5842H17.7026L17.1616 31.4939H14.1054Z" fill="#2A394C"/>
<path d="M47.5966 32.3875C47.8214 32.1577 47.9975 31.8849 48.1143 31.5854C48.231 31.2859 48.286 30.9658 48.2759 30.6445C48.2452 30.0123 47.9713 29.4165 47.5115 28.9815C47.0517 28.5466 46.4415 28.3062 45.8086 28.3106H34.1252C33.7967 28.3106 33.4717 28.378 33.1703 28.5086C32.8689 28.6391 32.5975 28.8301 32.3728 29.0698C32.1482 29.3094 31.9751 29.5925 31.8642 29.9017C31.7533 30.2109 31.707 30.5395 31.7281 30.8673C31.7714 31.4477 32.0216 31.9933 32.4332 32.4048C32.8447 32.8162 33.3904 33.0663 33.9708 33.1094C34.2986 33.1304 34.6272 33.0841 34.9364 32.9732C35.2455 32.8622 35.5287 32.6891 35.7683 32.4644C36.0079 32.2398 36.1989 31.9684 36.3295 31.667C36.4601 31.3656 36.5275 31.0406 36.5275 30.7122C36.5275 30.505 36.6098 30.3063 36.7563 30.1597C36.9028 30.0132 37.1016 29.9309 37.3088 29.9309H42.6916C42.8988 29.9309 43.0975 30.0132 43.244 30.1597C43.3905 30.3063 43.4728 30.505 43.4728 30.7122C43.4728 31.1901 43.6154 31.6571 43.8823 32.0535C44.1492 32.4499 44.5282 32.7577 44.971 32.9376C45.4137 33.1174 45.9001 33.1611 46.3678 33.063C46.8355 32.9649 47.2633 32.7296 47.5966 32.387V32.3875Z" fill="#2A394C"/>
<path d="M35.0415 60.6722V62.003H44.9584V60.6722L44.1957 59.1467H35.8042L35.0415 60.6722Z" fill="#2A394C"/>
</svg>
