<svg width="80" height="80" viewBox="0 0 80 80" fill="none" xmlns="http://www.w3.org/2000/svg">
<path d="M39.9998 39.0273C44.696 39.0273 48.5167 35.3184 48.5167 30.7598C48.5167 26.2013 44.696 22.4922 39.9998 22.4922C35.3035 22.4922 31.4829 26.2011 31.4829 30.7598C31.4829 35.3186 35.3035 39.0273 39.9998 39.0273ZM34.0442 29.348C34.0893 29.2094 34.1722 29.0862 34.2837 28.9924C34.3951 28.8985 34.5306 28.8377 34.6748 28.8167L37.8703 28.3525L39.2992 25.457C39.3637 25.3263 39.4635 25.2162 39.5873 25.1392C39.7111 25.0622 39.854 25.0214 39.9998 25.0214C40.1456 25.0214 40.2885 25.0622 40.4123 25.1392C40.5361 25.2162 40.6359 25.3263 40.7004 25.457L42.1293 28.3525L45.3248 28.8167C45.4691 28.8377 45.6046 28.8986 45.7161 28.9925C45.8275 29.0865 45.9105 29.2098 45.9555 29.3485C46.0006 29.4871 46.0059 29.6356 45.971 29.7772C45.936 29.9187 45.8622 30.0476 45.7578 30.1494L43.4453 32.4031L43.991 35.5856C44.0157 35.7293 43.9996 35.877 43.9447 36.0121C43.8898 36.1471 43.7982 36.2641 43.6802 36.3498C43.5623 36.4355 43.4227 36.4865 43.2773 36.497C43.1319 36.5075 42.9865 36.4771 42.8574 36.4092L39.9998 34.9062L37.1418 36.4088C37.0128 36.4766 36.8673 36.507 36.7219 36.4965C36.5765 36.486 36.437 36.435 36.319 36.3493C36.2011 36.2636 36.1095 36.1466 36.0545 36.0116C35.9996 35.8766 35.9836 35.7288 36.0082 35.5852L36.554 32.4027L34.2415 30.1489C34.1372 30.0471 34.0634 29.9181 34.0285 29.7766C33.9936 29.6351 33.9991 29.4866 34.0442 29.348Z" fill="#2A394C"/>
<path d="M37.0581 44.1646V58.5419L39.605 57.0458C39.725 56.9753 39.8616 56.9381 40.0008 56.9381C40.1399 56.9381 40.2766 56.9753 40.3965 57.0458L42.9434 58.5419V44.1646C41.0028 44.5681 39 44.5681 37.0594 44.1646H37.0581Z" fill="#2A394C"/>
<path d="M38.1638 32.262L37.8162 34.2891L39.6365 33.332C39.7486 33.2731 39.8734 33.2423 40.0001 33.2423C40.1267 33.2423 40.2515 33.2731 40.3637 33.332L42.184 34.2891L41.8363 32.262C41.8149 32.1372 41.8241 32.009 41.8633 31.8885C41.9024 31.768 41.9703 31.6589 42.061 31.5705L43.5338 30.135L41.4985 29.8392C41.3731 29.821 41.2541 29.7726 41.1516 29.6982C41.0491 29.6237 40.9663 29.5255 40.9102 29.4119L40.0001 27.5675L39.0899 29.4113C39.0338 29.5248 38.951 29.6231 38.8485 29.6975C38.746 29.772 38.627 29.8204 38.5016 29.8386L36.4663 30.1344L37.9391 31.5698C38.0299 31.6583 38.0978 31.7676 38.137 31.8882C38.1761 32.0088 38.1853 32.1371 38.1638 32.262Z" fill="#2A394C"/>
<path d="M44.5044 59.46L46.518 60.6431V42.903C45.8695 43.2355 45.1963 43.5176 44.5044 43.7467V59.46Z" fill="#2A394C"/>
<path d="M39.9998 42.9047C46.8931 42.9047 52.501 37.4564 52.501 30.7599C52.501 24.0633 46.8931 18.6149 39.9998 18.6149C33.1065 18.6149 27.4985 24.0625 27.4985 30.7599C27.4985 37.4572 33.1065 42.9047 39.9998 42.9047ZM39.9998 20.9297C45.5576 20.9297 50.0792 25.3396 50.0792 30.7599C50.0792 36.1802 45.5576 40.5899 39.9998 40.5899C34.442 40.5899 29.9204 36.18 29.9204 30.7599C29.9204 25.3397 34.442 20.9297 39.9998 20.9297Z" fill="#2A394C"/>
<path d="M12.9048 19.8263V44.5539C12.9048 49.8894 14.3006 54.8478 17.0535 59.2917C19.2663 62.8636 22.3584 66.1199 26.244 68.9702C32.2367 73.3661 38.3129 75.4402 39.5206 75.8263C44.4214 74.2311 49.0589 71.9188 53.282 68.9644C57.307 66.1128 60.5098 62.855 62.8015 59.2827C65.6347 54.8952 67.1269 49.7766 67.0951 44.5539V19.8263C57.4916 15.6679 48.3998 10.4157 39.9999 4.17377C31.6001 10.4157 22.5083 15.6679 12.9048 19.8263ZM63.7173 21.015L63.8721 21.0817C64.0124 21.1421 64.1319 21.2422 64.2159 21.3698C64.2999 21.4973 64.3446 21.6467 64.3446 21.7994V44.5388C64.3728 49.2371 63.0278 53.8414 60.4751 57.7858C58.4321 60.9644 55.5904 63.853 52.0285 66.3711C45.9954 70.6367 40.054 72.3441 39.804 72.4146C39.6628 72.4546 39.5132 72.4539 39.3724 72.4127C39.1306 72.342 33.3851 70.6324 27.5529 66.3636C24.1109 63.8442 21.3654 60.9547 19.3912 57.7753C16.9191 53.8053 15.624 49.2154 15.6562 44.5388V21.7994C15.6562 21.6467 15.7009 21.4973 15.7849 21.3698C15.8689 21.2422 15.9884 21.1421 16.1287 21.0817L16.2835 21.015C24.5379 17.4634 32.3417 12.9448 39.5312 7.55408C39.6664 7.45266 39.8309 7.39783 39.9999 7.39783C40.169 7.39783 40.3335 7.45266 40.4687 7.55408C47.6584 12.9451 55.4623 17.4639 63.717 21.0156L63.7173 21.015Z" fill="#2A394C"/>
<path d="M33.4819 60.6431L35.4955 59.46V43.7462C34.8036 43.5171 34.1304 43.2351 33.4819 42.9025V60.6431Z" fill="#2A394C"/>
<path d="M17.2188 44.5388C17.1878 48.9241 18.4015 53.2283 20.7188 56.9514C22.5862 59.9597 25.196 62.7022 28.4759 65.1028C31.8731 67.5644 35.6216 69.5004 39.5954 70.8456C43.7145 69.5 47.6123 67.5537 51.1629 65.0695C54.551 62.6683 57.2463 59.9264 59.174 56.92C61.555 53.2315 62.8088 48.9289 62.7821 44.5388V22.3125C54.7104 18.8109 47.0665 14.3959 40.0001 9.15375C32.9339 14.3958 25.2903 18.8109 17.2188 22.3125V44.5388ZM40.0001 17.0523C47.7548 17.0523 54.0638 23.2014 54.0638 30.7598C54.0638 35.3891 51.6968 39.4892 48.0807 41.9722V62.0083C48.0807 62.1459 48.0444 62.2811 47.9753 62.4002C47.9063 62.5193 47.807 62.618 47.6875 62.6864C47.568 62.7547 47.4326 62.7903 47.295 62.7895C47.1574 62.7887 47.0224 62.7516 46.9037 62.6819L40.0001 58.625L33.0965 62.6814C32.9778 62.7511 32.8428 62.7883 32.7052 62.7891C32.5675 62.7899 32.4321 62.7543 32.3127 62.6859C32.1932 62.6175 32.0939 62.5188 32.0249 62.3997C31.9558 62.2807 31.9195 62.1455 31.9195 62.0078V41.9722C28.3034 39.4892 25.9363 35.3891 25.9363 30.7598C25.9363 23.2014 32.2454 17.0523 40.0001 17.0523ZM19.8934 26.388C19.8934 26.1808 19.9757 25.9821 20.1222 25.8355C20.2687 25.689 20.4674 25.6067 20.6746 25.6067C20.8818 25.6067 21.0805 25.689 21.2271 25.8355C21.3736 25.9821 21.4559 26.1808 21.4559 26.388V27.3716C21.4559 27.5788 21.3736 27.7775 21.2271 27.924C21.0805 28.0705 20.8818 28.1528 20.6746 28.1528C20.4674 28.1528 20.2687 28.0705 20.1222 27.924C19.9757 27.7775 19.8934 27.5788 19.8934 27.3716V26.388ZM19.8934 30.3403C19.8934 30.1331 19.9757 29.9344 20.1222 29.7879C20.2687 29.6414 20.4674 29.5591 20.6746 29.5591C20.8818 29.5591 21.0805 29.6414 21.2271 29.7879C21.3736 29.9344 21.4559 30.1331 21.4559 30.3403V43.7778C21.4559 43.985 21.3736 44.1837 21.2271 44.3302C21.0805 44.4768 20.8818 44.5591 20.6746 44.5591C20.4674 44.5591 20.2687 44.4768 20.1222 44.3302C19.9757 44.1837 19.8934 43.985 19.8934 43.7778V30.3403Z" fill="#2A394C"/>
</svg>
